<svg xmlns="http://www.w3.org/2000/svg" xmlns:xlink="http://www.w3.org/1999/xlink" xmlns:lucid="lucid" width="976" height="1182"><g transform="translate(-392 -119)" lucid:page-tab-id="s9RcOH2pqRaS"><path d="M672.5 325a5 5 0 0 1 5-5h150a5 5 0 0 1 5 5v110a5 5 0 0 1-5 5h-150a5 5 0 0 1-5-5z" stroke="#333" stroke-width="2" fill="#a4d7d0" fill-opacity=".74"/><use xlink:href="#a" transform="matrix(1,0,0,1,677.5,325) translate(36.37685185185185 59.48888888888888)"/><path d="M712.5 485a5 5 0 0 1 5-5h150a5 5 0 0 1 5 5v110a5 5 0 0 1-5 5h-150a5 5 0 0 1-5-5z" stroke="#a4d7d0" stroke-width="2" fill="#a4d7d0" fill-opacity=".2"/><use xlink:href="#b" transform="matrix(1,0,0,1,717.5,485) translate(24.528703703703705 59.044444444444444)"/><path d="M691.5 441.5V535a5 5 0 0 0 5 5H711" stroke="#6f7681" fill="none"/><path d="M691.98 441.5H691v-.5h.96zM711.5 540.48h-.5v-.96h.5z" stroke="#6f7681" stroke-width=".05" fill="#6f7681"/><path d="M712.5 645a5 5 0 0 1 5-5h150a5 5 0 0 1 5 5v110a5 5 0 0 1-5 5h-150a5 5 0 0 1-5-5z" stroke="#a4d7d0" stroke-width="2" fill="#a4d7d0" fill-opacity=".2"/><use xlink:href="#c" transform="matrix(1,0,0,1,717.5,645) translate(35.73518518518519 59.044444444444444)"/><path d="M691.5 441.5V695a5 5 0 0 0 5 5H711" stroke="#6f7681" fill="none"/><path d="M691.98 441.5H691v-.5h.96zM711.5 700.48h-.5v-.96h.5z" stroke="#6f7681" stroke-width=".05" fill="#6f7681"/><path d="M453.15 90.13a8 8 0 0 1 8-8h837.7a8 8 0 0 1 8 8v2.85a8 8 0 0 1-8 8h-837.7a8 8 0 0 1-8-8z" stroke="#000" stroke-opacity="0" stroke-width="2" fill="#fff" fill-opacity="0"/><use xlink:href="#d" transform="matrix(1,0,0,1,457.1465527853436,86.13325726115534) translate(314.60912261873654 16.000849973417758)"/><use xlink:href="#e" transform="matrix(1,0,0,1,457.1465527853436,86.13325726115534) translate(361.7408799899612 16.000849973417758)"/><use xlink:href="#f" transform="matrix(1,0,0,1,457.1465527853436,86.13325726115534) translate(423.67358177609447 16.000849973417758)"/><use xlink:href="#g" transform="matrix(1,0,0,1,457.1465527853436,86.13325726115534) translate(437.22569650599513 16.000849973417758)"/><use xlink:href="#h" transform="matrix(1,0,0,1,457.1465527853436,86.13325726115534) translate(473.25674556603826 16.000849973417758)"/><use xlink:href="#i" transform="matrix(1,0,0,1,457.1465527853436,86.13325726115534) translate(501.0085163439919 16.000849973417758)"/><path d="M472.5 325a5 5 0 0 1 5-5h150a5 5 0 0 1 5 5v110a5 5 0 0 1-5 5h-150a5 5 0 0 1-5-5z" stroke="#333" stroke-width="2" fill="#a4d7d0" fill-opacity=".74"/><use xlink:href="#j" transform="matrix(1,0,0,1,477.5,325) translate(35.78456790123458 59.48888888888888)"/><path d="M872.5 325a5 5 0 0 1 5-5h150a5 5 0 0 1 5 5v110a5 5 0 0 1-5 5h-150a5 5 0 0 1-5-5z" stroke="#333" stroke-width="2" fill="#a4d7d0" fill-opacity=".74"/><use xlink:href="#k" transform="matrix(1,0,0,1,877.5,325) translate(0.30987654320989577 59.48888888888888)"/><path d="M512.5 485a5 5 0 0 1 5-5h150a5 5 0 0 1 5 5v110a5 5 0 0 1-5 5h-150a5 5 0 0 1-5-5z" stroke="#a4d7d0" stroke-width="2" fill="#a4d7d0" fill-opacity=".2"/><use xlink:href="#l" transform="matrix(1,0,0,1,517.5,485) translate(27.89907407407408 59.044444444444444)"/><path d="M491.5 441.5V528a12 12 0 0 0 12 12h7.5" stroke="#6f7681" fill="none"/><path d="M491.98 441.5h-.96v-.5h.96zM511.5 540.48h-.5v-.96h.5z" stroke="#6f7681" stroke-width=".05" fill="#6f7681"/><path d="M512.5 645a5 5 0 0 1 5-5h150a5 5 0 0 1 5 5v110a5 5 0 0 1-5 5h-150a5 5 0 0 1-5-5z" stroke="#a4d7d0" stroke-width="2" fill="#a4d7d0" fill-opacity=".2"/><use xlink:href="#m" transform="matrix(1,0,0,1,517.5,645) translate(26.18580246913581 59.044444444444444)"/><path d="M491.5 441.5V688a12 12 0 0 0 12 12h7.5" stroke="#6f7681" fill="none"/><path d="M491.98 441.5h-.96v-.5h.96zM511.5 700.48h-.5v-.96h.5z" stroke="#6f7681" stroke-width=".05" fill="#6f7681"/><path d="M512.5 805a5 5 0 0 1 5-5h150a5 5 0 0 1 5 5v110a5 5 0 0 1-5 5h-150a5 5 0 0 1-5-5z" stroke="#a4d7d0" stroke-width="2" fill="#a4d7d0" fill-opacity=".2"/><use xlink:href="#n" transform="matrix(1,0,0,1,517.5,805) translate(10.541666666666686 46.91111111111111)"/><use xlink:href="#o" transform="matrix(1,0,0,1,517.5,805) translate(128.22376543209876 46.91111111111111)"/><use xlink:href="#p" transform="matrix(1,0,0,1,517.5,805) translate(30.651543209876543 71.17777777777778)"/><path d="M512.5 965a5 5 0 0 1 5-5h150a5 5 0 0 1 5 5v110a5 5 0 0 1-5 5h-150a5 5 0 0 1-5-5z" stroke="#a4d7d0" stroke-width="2" fill="#a4d7d0" fill-opacity=".2"/><use xlink:href="#q" transform="matrix(1,0,0,1,517.5,965) translate(8.772222222222226 46.91111111111111)"/><use xlink:href="#r" transform="matrix(1,0,0,1,517.5,965) translate(131.11666666666667 46.91111111111111)"/><use xlink:href="#s" transform="matrix(1,0,0,1,517.5,965) translate(35.229629629629635 71.17777777777778)"/><path d="M512.5 1125a5 5 0 0 1 5-5h150a5 5 0 0 1 5 5v110a5 5 0 0 1-5 5h-150a5 5 0 0 1-5-5z" stroke="#a4d7d0" stroke-width="2" fill="#a4d7d0" fill-opacity=".2"/><use xlink:href="#t" transform="matrix(1,0,0,1,517.5,1125) translate(40.818827160493825 59.044444444444444)"/><path d="M491.5 441.5V848a12 12 0 0 0 12 12h7.5" stroke="#6f7681" fill="none"/><path d="M491.98 441.5h-.96v-.5h.96zM511.5 860.48h-.5v-.96h.5z" stroke="#6f7681" stroke-width=".05" fill="#6f7681"/><path d="M491.5 441.5V1008a12 12 0 0 0 12 12h7.5" stroke="#6f7681" fill="none"/><path d="M491.98 441.5h-.96v-.5h.96zM511.5 1020.48h-.5v-.96h.5z" stroke="#6f7681" stroke-width=".05" fill="#6f7681"/><path d="M491.5 441.5V1168a12 12 0 0 0 12 12h7.5" stroke="#6f7681" fill="none"/><path d="M491.98 441.5h-.96v-.5h.96zM511.5 1180.47h-.5v-.94h.5z" stroke="#6f7681" stroke-width=".05" fill="#6f7681"/><path d="M712.5 805a5 5 0 0 1 5-5h150a5 5 0 0 1 5 5v110a5 5 0 0 1-5 5h-150a5 5 0 0 1-5-5z" stroke="#a4d7d0" stroke-width="2" fill="#a4d7d0" fill-opacity=".2"/><use xlink:href="#u" transform="matrix(1,0,0,1,717.5,805) translate(21.158333333333346 46.91111111111111)"/><use xlink:href="#v" transform="matrix(1,0,0,1,717.5,805) translate(106.37253086419753 46.91111111111111)"/><use xlink:href="#w" transform="matrix(1,0,0,1,717.5,805) translate(36.325 71.17777777777778)"/><path d="M691.5 441.5V848a12 12 0 0 0 12 12h7.5" stroke="#6f7681" fill="none"/><path d="M691.98 441.5H691v-.5h.96zM711.5 860.48h-.5v-.96h.5z" stroke="#6f7681" stroke-width=".05" fill="#6f7681"/><path d="M912.5 645a5 5 0 0 1 5-5h150a5 5 0 0 1 5 5v110a5 5 0 0 1-5 5h-150a5 5 0 0 1-5-5z" stroke="#a4d7d0" stroke-width="2" fill="#a4d7d0" fill-opacity=".2"/><use xlink:href="#x" transform="matrix(1,0,0,1,917.5,645) translate(32.364814814814814 59.044444444444444)"/><path d="M912.5 485a5 5 0 0 1 5-5h150a5 5 0 0 1 5 5v110a5 5 0 0 1-5 5h-150a5 5 0 0 1-5-5z" stroke="#a4d7d0" stroke-width="2" fill="#a4d7d0" fill-opacity=".2"/><use xlink:href="#y" transform="matrix(1,0,0,1,917.5,485) translate(10.457407407407402 46.91111111111111)"/><use xlink:href="#z" transform="matrix(1,0,0,1,917.5,485) translate(20.006790123456796 71.17777777777778)"/><use xlink:href="#A" transform="matrix(1,0,0,1,917.5,485) translate(52.53086419753087 71.17777777777778)"/><path d="M891.5 441.5V528a12 12 0 0 0 12 12h7.5" stroke="#6f7681" fill="none"/><path d="M891.98 441.5H891v-.5h.96zM911.5 540.48h-.5v-.96h.5z" stroke="#6f7681" stroke-width=".05" fill="#6f7681"/><path d="M891.5 441.5V688a12 12 0 0 0 12 12h7.5" stroke="#6f7681" fill="none"/><path d="M891.98 441.5H891v-.5h.96zM911.5 700.48h-.5v-.96h.5z" stroke="#6f7681" stroke-width=".05" fill="#6f7681"/><path d="M912.5 805a5 5 0 0 1 5-5h150a5 5 0 0 1 5 5v110a5 5 0 0 1-5 5h-150a5 5 0 0 1-5-5z" stroke="#a4d7d0" stroke-width="2" fill="#a4d7d0" fill-opacity=".2"/><use xlink:href="#B" transform="matrix(1,0,0,1,917.5,805) translate(22.337962962962962 59.044444444444444)"/><path d="M891.5 441.5V848a12 12 0 0 0 12 12h7.5" stroke="#6f7681" fill="none"/><path d="M891.98 441.5H891v-.5h.96zM911.5 860.48h-.5v-.96h.5z" stroke="#6f7681" stroke-width=".05" fill="#6f7681"/><path d="M1072.5 325a5 5 0 0 1 5-5h150a5 5 0 0 1 5 5v110a5 5 0 0 1-5 5h-150a5 5 0 0 1-5-5z" stroke="#333" stroke-width="2" fill="#a4d7d0" fill-opacity=".74"/><use xlink:href="#C" transform="matrix(1,0,0,1,1077.5,325) translate(20.790432098765436 46.022222222222226)"/><use xlink:href="#D" transform="matrix(1,0,0,1,1077.5,325) translate(104.2712962962963 46.022222222222226)"/><use xlink:href="#E" transform="matrix(1,0,0,1,1077.5,325) translate(30.765740740740753 72.95555555555555)"/><path d="M772.5 145a5 5 0 0 1 5-5h150a5 5 0 0 1 5 5v130a5 5 0 0 1-5 5h-150a5 5 0 0 1-5-5z" stroke="#6f7681" stroke-width="2" fill="#008573"/><use xlink:href="#F" transform="matrix(1,0,0,1,777.5,145) translate(27.087345679012365 69.48888888888888)"/><path d="M852.5 281.5v6.5a12 12 0 0 0 12 12h76a12 12 0 0 1 12 12v6.5" stroke="#6f7681" fill="none"/><path d="M852.98 281.5H852v-.5h.96zM952.98 319H952v-.5h.96z" stroke="#6f7681" stroke-width=".05" fill="#6f7681"/><path d="M852.5 281.5v6.5a12 12 0 0 1-12 12h-76a12 12 0 0 0-12 12v6.5" stroke="#6f7681" fill="none"/><path d="M852.98 281.5H852v-.5h.96zM752.98 319H752v-.5h.96z" stroke="#6f7681" stroke-width=".05" fill="#6f7681"/><path d="M852.5 281.5v6.5a12 12 0 0 0 12 12h276a12 12 0 0 1 12 12v6.5" stroke="#6f7681" fill="none"/><path d="M852.98 281.5H852v-.5h.96zM1152.97 319h-.94v-.5h.94z" stroke="#6f7681" stroke-width=".05" fill="#6f7681"/><path d="M852.5 281.5v6.5a12 12 0 0 1-12 12h-276a12 12 0 0 0-12 12v6.5" stroke="#6f7681" fill="none"/><path d="M852.98 281.5H852v-.5h.96zM552.98 319H552v-.5h.96z" stroke="#6f7681" stroke-width=".05" fill="#6f7681"/><path d="M1112.5 645a5 5 0 0 1 5-5h150a5 5 0 0 1 5 5v110a5 5 0 0 1-5 5h-150a5 5 0 0 1-5-5z" stroke="#a4d7d0" stroke-width="2" fill="#a4d7d0" fill-opacity=".2"/><use xlink:href="#G" transform="matrix(1,0,0,1,1117.5,645) translate(18.37777777777778 59.044444444444444)"/><path d="M1112.5 805a5 5 0 0 1 5-5h150a5 5 0 0 1 5 5v110a5 5 0 0 1-5 5h-150a5 5 0 0 1-5-5z" stroke="#a4d7d0" stroke-width="2" fill="#a4d7d0" fill-opacity=".2"/><use xlink:href="#H" transform="matrix(1,0,0,1,1117.5,805) translate(42.504012345679016 59.044444444444444)"/><path d="M1112.5 485a5 5 0 0 1 5-5h150a5 5 0 0 1 5 5v110a5 5 0 0 1-5 5h-150a5 5 0 0 1-5-5z" stroke="#a4d7d0" stroke-width="2" fill="#a4d7d0" fill-opacity=".2"/><use xlink:href="#I" transform="matrix(1,0,0,1,1117.5,485) translate(25.65216049382716 59.044444444444444)"/><path d="M1112.5 965a5 5 0 0 1 5-5h150a5 5 0 0 1 5 5v110a5 5 0 0 1-5 5h-150a5 5 0 0 1-5-5z" stroke="#a4d7d0" stroke-width="2" fill="#a4d7d0" fill-opacity=".2"/><g><use xlink:href="#J" transform="matrix(1,0,0,1,1117.5,965) translate(11.075308641975312 59.044444444444444)"/></g><path d="M1091.5 441.5V528a12 12 0 0 0 12 12h7.5" stroke="#6f7681" fill="none"/><path d="M1091.97 441.5h-.94v-.5h.94zM1111.5 540.48h-.5v-.96h.5z" stroke="#6f7681" stroke-width=".05" fill="#6f7681"/><path d="M1091.5 441.5V688a12 12 0 0 0 12 12h7.5" stroke="#6f7681" fill="none"/><path d="M1091.97 441.5h-.94v-.5h.94zM1111.5 700.48h-.5v-.96h.5z" stroke="#6f7681" stroke-width=".05" fill="#6f7681"/><path d="M1091.5 441.5V848a12 12 0 0 0 12 12h7.5" stroke="#6f7681" fill="none"/><path d="M1091.97 441.5h-.94v-.5h.94zM1111.5 860.48h-.5v-.96h.5z" stroke="#6f7681" stroke-width=".05" fill="#6f7681"/><path d="M1091.5 441.5V1008a12 12 0 0 0 12 12h7.5" stroke="#6f7681" fill="none"/><path d="M1091.97 441.5h-.94v-.5h.94zM1111.5 1020.48h-.5v-.96h.5z" stroke="#6f7681" stroke-width=".05" fill="#6f7681"/><defs><path fill="#333" d="M30 0v-248h187v28H63v79h144v27H63v87h162V0H30" id="K"/><path fill="#333" d="M141 0L90-78 38 0H4l68-98-65-92h35l48 74 47-74h35l-64 92 68 98h-35" id="L"/><path fill="#333" d="M59-47c-2 24 18 29 38 22v24C64 9 27 4 27-40v-127H5v-23h24l9-43h21v43h35v23H59v120" id="M"/><path fill="#333" d="M100-194c63 0 86 42 84 106H49c0 40 14 67 53 68 26 1 43-12 49-29l28 8c-11 28-37 45-77 45C44 4 14-33 15-96c1-61 26-98 85-98zm52 81c6-60-76-77-97-28-3 7-6 17-6 28h103" id="N"/><path fill="#333" d="M114-163C36-179 61-72 57 0H25l-1-190h30c1 12-1 29 2 39 6-27 23-49 58-41v29" id="O"/><path fill="#333" d="M117-194c89-4 53 116 60 194h-32v-121c0-31-8-49-39-48C34-167 62-67 57 0H25l-1-190h30c1 10-1 24 2 32 11-22 29-35 61-36" id="P"/><path fill="#333" d="M100-194c62-1 85 37 85 99 1 63-27 99-86 99S16-35 15-95c0-66 28-99 85-99zM99-20c44 1 53-31 53-75 0-43-8-75-51-75s-53 32-53 75 10 74 51 75" id="Q"/><g id="a"><use transform="matrix(0.06234567901234567,0,0,0.06234567901234567,0,0)" xlink:href="#K"/><use transform="matrix(0.06234567901234567,0,0,0.06234567901234567,14.96296296296296,0)" xlink:href="#L"/><use transform="matrix(0.06234567901234567,0,0,0.06234567901234567,26.18518518518518,0)" xlink:href="#M"/><use transform="matrix(0.06234567901234567,0,0,0.06234567901234567,32.419753086419746,0)" xlink:href="#N"/><use transform="matrix(0.06234567901234567,0,0,0.06234567901234567,44.88888888888888,0)" xlink:href="#O"/><use transform="matrix(0.06234567901234567,0,0,0.06234567901234567,52.308024691358014,0)" xlink:href="#P"/><use transform="matrix(0.06234567901234567,0,0,0.06234567901234567,64.77716049382715,0)" xlink:href="#Q"/></g><path fill="#333" d="M233-177c-1 41-23 64-60 70L243 0h-38l-65-103H63V0H30v-248c88 3 205-21 203 71zM63-129c60-2 137 13 137-47 0-61-80-42-137-45v92" id="R"/><path fill="#333" d="M177-190C167-65 218 103 67 71c-23-6-38-20-44-43l32-5c15 47 100 32 89-28v-30C133-14 115 1 83 1 29 1 15-40 15-95c0-56 16-97 71-98 29-1 48 16 59 35 1-10 0-23 2-32h30zM94-22c36 0 50-32 50-73 0-42-14-75-50-75-39 0-46 34-46 75s6 73 46 73" id="S"/><path fill="#333" d="M84 4C-5 8 30-112 23-190h32v120c0 31 7 50 39 49 72-2 45-101 50-169h31l1 190h-30c-1-10 1-25-2-33-11 22-28 36-60 37" id="T"/><path fill="#333" d="M24 0v-261h32V0H24" id="U"/><path fill="#333" d="M141-36C126-15 110 5 73 4 37 3 15-17 15-53c-1-64 63-63 125-63 3-35-9-54-41-54-24 1-41 7-42 31l-33-3c5-37 33-52 76-52 45 0 72 20 72 64v82c-1 20 7 32 28 27v20c-31 9-61-2-59-35zM48-53c0 20 12 33 32 33 41-3 63-29 60-74-43 2-92-5-92 41" id="V"/><path fill="#333" d="M96-169c-40 0-48 33-48 73s9 75 48 75c24 0 41-14 43-38l32 2c-6 37-31 61-74 61-59 0-76-41-82-99-10-93 101-131 147-64 4 7 5 14 7 22l-32 3c-4-21-16-35-41-35" id="W"/><path fill="#333" d="M24-231v-30h32v30H24zM24 0v-190h32V0H24" id="X"/><path fill="#333" d="M100-194c62-1 85 37 85 99 1 63-27 99-86 99S16-35 15-95c0-66 28-99 85-99zM99-20c44 1 53-31 53-75 0-43-8-75-51-75s-53 32-53 75 10 74 51 75zM76-211c8-23 27-35 38-54h36v5l-58 49H76" id="Y"/><g id="b"><use transform="matrix(0.056172839506172835,0,0,0.056172839506172835,0,0)" xlink:href="#R"/><use transform="matrix(0.056172839506172835,0,0,0.056172839506172835,14.548765432098763,0)" xlink:href="#N"/><use transform="matrix(0.056172839506172835,0,0,0.056172839506172835,25.78333333333333,0)" xlink:href="#S"/><use transform="matrix(0.056172839506172835,0,0,0.056172839506172835,37.0179012345679,0)" xlink:href="#T"/><use transform="matrix(0.056172839506172835,0,0,0.056172839506172835,48.25246913580247,0)" xlink:href="#U"/><use transform="matrix(0.056172839506172835,0,0,0.056172839506172835,52.690123456790126,0)" xlink:href="#V"/><use transform="matrix(0.056172839506172835,0,0,0.056172839506172835,63.92469135802469,0)" xlink:href="#W"/><use transform="matrix(0.056172839506172835,0,0,0.056172839506172835,74.0358024691358,0)" xlink:href="#X"/><use transform="matrix(0.056172839506172835,0,0,0.056172839506172835,78.47345679012345,0)" xlink:href="#Y"/><use transform="matrix(0.056172839506172835,0,0,0.056172839506172835,89.70802469135802,0)" xlink:href="#P"/></g><path fill="#333" d="M240 0l2-218c-23 76-54 145-80 218h-23L58-218 59 0H30v-248h44l77 211c21-75 51-140 76-211h43V0h-30" id="Z"/><path fill="#333" d="M85-194c31 0 48 13 60 33l-1-100h32l1 261h-30c-2-10 0-23-3-31C134-8 116 4 85 4 32 4 16-35 15-94c0-66 23-100 70-100zm9 24c-40 0-46 34-46 75 0 40 6 74 45 74 42 0 51-32 51-76 0-42-9-74-50-73" id="aa"/><g id="c"><use transform="matrix(0.056172839506172835,0,0,0.056172839506172835,0,0)" xlink:href="#Z"/><use transform="matrix(0.056172839506172835,0,0,0.056172839506172835,16.795679012345676,0)" xlink:href="#N"/><use transform="matrix(0.056172839506172835,0,0,0.056172839506172835,28.030246913580243,0)" xlink:href="#O"/><use transform="matrix(0.056172839506172835,0,0,0.056172839506172835,34.71481481481481,0)" xlink:href="#W"/><use transform="matrix(0.056172839506172835,0,0,0.056172839506172835,44.825925925925915,0)" xlink:href="#V"/><use transform="matrix(0.056172839506172835,0,0,0.056172839506172835,56.060493827160485,0)" xlink:href="#aa"/><use transform="matrix(0.056172839506172835,0,0,0.056172839506172835,67.29506172839505,0)" xlink:href="#Q"/></g><path fill="#b2b2b2" d="M30-248c87 1 191-15 191 75 0 78-77 80-158 76V0H30v-248zm33 125c57 0 124 11 124-50 0-59-68-47-124-48v98" id="ab"/><path fill="#b2b2b2" d="M141-36C126-15 110 5 73 4 37 3 15-17 15-53c-1-64 63-63 125-63 3-35-9-54-41-54-24 1-41 7-42 31l-33-3c5-37 33-52 76-52 45 0 72 20 72 64v82c-1 20 7 32 28 27v20c-31 9-61-2-59-35zM48-53c0 20 12 33 32 33 41-3 63-29 60-74-43 2-92-5-92 41" id="ac"/><path fill="#b2b2b2" d="M84 4C-5 8 30-112 23-190h32v120c0 31 7 50 39 49 72-2 45-101 50-169h31l1 190h-30c-1-10 1-25-2-33-11 22-28 36-60 37" id="ad"/><path fill="#b2b2b2" d="M24 0v-261h32V0H24" id="ae"/><g id="d"><use transform="matrix(0.046252951296589434,0,0,0.046252951296589434,0,0)" xlink:href="#ab"/><use transform="matrix(0.046252951296589434,0,0,0.046252951296589434,11.100708311181464,0)" xlink:href="#ac"/><use transform="matrix(0.046252951296589434,0,0,0.046252951296589434,20.351298570499353,0)" xlink:href="#ad"/><use transform="matrix(0.046252951296589434,0,0,0.046252951296589434,29.60188882981724,0)" xlink:href="#ae"/><use transform="matrix(0.046252951296589434,0,0,0.046252951296589434,33.255871982247804,0)" xlink:href="#ac"/></g><path fill="#b2b2b2" d="M185-189c-5-48-123-54-124 2 14 75 158 14 163 119 3 78-121 87-175 55-17-10-28-26-33-46l33-7c5 56 141 63 141-1 0-78-155-14-162-118-5-82 145-84 179-34 5 7 8 16 11 25" id="af"/><path fill="#b2b2b2" d="M141-36C126-15 110 5 73 4 37 3 15-17 15-53c-1-64 63-63 125-63 3-35-9-54-41-54-24 1-41 7-42 31l-33-3c5-37 33-52 76-52 45 0 72 20 72 64v82c-1 20 7 32 28 27v20c-31 9-61-2-59-35zM48-53c0 20 12 33 32 33 41-3 63-29 60-74-43 2-92-5-92 41zm25-158c8-23 27-35 38-54h36v5l-58 49H73" id="ag"/><path fill="#b2b2b2" d="M114-163C36-179 61-72 57 0H25l-1-190h30c1 12-1 29 2 39 6-27 23-49 58-41v29" id="ah"/><path fill="#b2b2b2" d="M100-194c63 0 86 42 84 106H49c0 40 14 67 53 68 26 1 43-12 49-29l28 8c-11 28-37 45-77 45C44 4 14-33 15-96c1-61 26-98 85-98zm52 81c6-60-76-77-97-28-3 7-6 17-6 28h103" id="ai"/><path fill="#b2b2b2" d="M9 0v-24l116-142H16v-24h144v24L44-24h123V0H9" id="aj"/><g id="e"><use transform="matrix(0.046252951296589434,0,0,0.046252951296589434,0,0)" xlink:href="#af"/><use transform="matrix(0.046252951296589434,0,0,0.046252951296589434,11.100708311181464,0)" xlink:href="#ad"/><use transform="matrix(0.046252951296589434,0,0,0.046252951296589434,20.351298570499353,0)" xlink:href="#ag"/><use transform="matrix(0.046252951296589434,0,0,0.046252951296589434,29.60188882981724,0)" xlink:href="#ah"/><use transform="matrix(0.046252951296589434,0,0,0.046252951296589434,35.105990034111386,0)" xlink:href="#ai"/><use transform="matrix(0.046252951296589434,0,0,0.046252951296589434,44.356580293429275,0)" xlink:href="#aj"/></g><path fill="#b2b2b2" d="M32 76v-337h29V76H32" id="ak"/><use transform="matrix(0.046252951296589434,0,0,0.046252951296589434,0,0)" xlink:href="#ak" id="f"/><path fill="#b2b2b2" d="M240 0l2-218c-23 76-54 145-80 218h-23L58-218 59 0H30v-248h44l77 211c21-75 51-140 76-211h43V0h-30" id="al"/><path fill="#b2b2b2" d="M179-190L93 31C79 59 56 82 12 73V49c39 6 53-20 64-50L1-190h34L92-34l54-156h33" id="am"/><g id="g"><use transform="matrix(0.046252951296589434,0,0,0.046252951296589434,0,0)" xlink:href="#al"/><use transform="matrix(0.046252951296589434,0,0,0.046252951296589434,13.82963243768024,0)" xlink:href="#ac"/><use transform="matrix(0.046252951296589434,0,0,0.046252951296589434,23.080222696998128,0)" xlink:href="#am"/></g><path fill="#b2b2b2" d="M27 0v-27h64v-190l-56 39v-29l58-41h29v221h61V0H27" id="an"/><path fill="#b2b2b2" d="M64 0c3-98 48-159 88-221H18v-27h164v26C143-157 98-101 97 0H64" id="ao"/><path fill="#b2b2b2" d="M68-38c1 34 0 65-14 84H32c9-13 17-26 17-46H33v-38h35" id="ap"/><g id="h"><use transform="matrix(0.046252951296589434,0,0,0.046252951296589434,0,0)" xlink:href="#an"/><use transform="matrix(0.046252951296589434,0,0,0.046252951296589434,9.250590259317887,0)" xlink:href="#ao"/><use transform="matrix(0.046252951296589434,0,0,0.046252951296589434,18.501180518635774,0)" xlink:href="#ap"/></g><path fill="#b2b2b2" d="M101-251c82-7 93 87 43 132L82-64C71-53 59-42 53-27h129V0H18c2-99 128-94 128-182 0-28-16-43-45-43s-46 15-49 41l-32-3c6-41 34-60 81-64" id="aq"/><path fill="#b2b2b2" d="M101-251c68 0 85 55 85 127S166 4 100 4C33 4 14-52 14-124c0-73 17-127 87-127zm-1 229c47 0 54-49 54-102s-4-102-53-102c-51 0-55 48-55 102 0 53 5 102 54 102" id="ar"/><path fill="#b2b2b2" d="M155-56V0h-30v-56H8v-25l114-167h33v167h35v25h-35zm-30-156c-27 46-58 90-88 131h88v-131" id="as"/><g id="i"><use transform="matrix(0.046252951296589434,0,0,0.046252951296589434,0,0)" xlink:href="#aq"/><use transform="matrix(0.046252951296589434,0,0,0.046252951296589434,9.250590259317887,0)" xlink:href="#ar"/><use transform="matrix(0.046252951296589434,0,0,0.046252951296589434,18.501180518635774,0)" xlink:href="#aq"/><use transform="matrix(0.046252951296589434,0,0,0.046252951296589434,27.75177077795366,0)" xlink:href="#as"/></g><path fill="#333" d="M127-220V0H93v-220H8v-28h204v28h-85" id="at"/><path fill="#333" d="M100-194c63 0 86 42 84 106H49c0 40 14 67 53 68 26 1 43-12 49-29l28 8c-11 28-37 45-77 45C44 4 14-33 15-96c1-61 26-98 85-98zm52 81c6-60-76-77-97-28-3 7-6 17-6 28h103zm-74-98c8-23 27-35 38-54h36v5l-58 49H78" id="au"/><g id="j"><use transform="matrix(0.06234567901234567,0,0,0.06234567901234567,0,0)" xlink:href="#at"/><use transform="matrix(0.06234567901234567,0,0,0.06234567901234567,13.653703703703702,0)" xlink:href="#au"/><use transform="matrix(0.06234567901234567,0,0,0.06234567901234567,26.122839506172834,0)" xlink:href="#W"/><use transform="matrix(0.06234567901234567,0,0,0.06234567901234567,37.34506172839505,0)" xlink:href="#P"/><use transform="matrix(0.06234567901234567,0,0,0.06234567901234567,49.814197530864185,0)" xlink:href="#X"/><use transform="matrix(0.06234567901234567,0,0,0.06234567901234567,54.73950617283949,0)" xlink:href="#W"/><use transform="matrix(0.06234567901234567,0,0,0.06234567901234567,65.96172839506171,0)" xlink:href="#Q"/></g><path fill="#333" d="M140-251c81 0 123 46 123 126C263-46 219 4 140 4 59 4 17-45 17-125s42-126 123-126zm0 227c63 0 89-41 89-101s-29-99-89-99c-61 0-89 39-89 99S79-25 140-24" id="av"/><path fill="#333" d="M9 0v-24l116-142H16v-24h144v24L44-24h123V0H9" id="aw"/><g id="k"><use transform="matrix(0.06234567901234567,0,0,0.06234567901234567,0,0)" xlink:href="#av"/><use transform="matrix(0.06234567901234567,0,0,0.06234567901234567,17.456790123456788,0)" xlink:href="#O"/><use transform="matrix(0.06234567901234567,0,0,0.06234567901234567,24.875925925925923,0)" xlink:href="#S"/><use transform="matrix(0.06234567901234567,0,0,0.06234567901234567,37.34506172839505,0)" xlink:href="#V"/><use transform="matrix(0.06234567901234567,0,0,0.06234567901234567,49.814197530864185,0)" xlink:href="#P"/><use transform="matrix(0.06234567901234567,0,0,0.06234567901234567,62.28333333333332,0)" xlink:href="#X"/><use transform="matrix(0.06234567901234567,0,0,0.06234567901234567,67.20864197530862,0)" xlink:href="#aw"/><use transform="matrix(0.06234567901234567,0,0,0.06234567901234567,78.43086419753084,0)" xlink:href="#V"/><use transform="matrix(0.06234567901234567,0,0,0.06234567901234567,90.89999999999998,0)" xlink:href="#W"/><use transform="matrix(0.06234567901234567,0,0,0.06234567901234567,102.12222222222219,0)" xlink:href="#X"/><use transform="matrix(0.06234567901234567,0,0,0.06234567901234567,107.0475308641975,0)" xlink:href="#Q"/><use transform="matrix(0.06234567901234567,0,0,0.06234567901234567,119.51666666666662,0)" xlink:href="#P"/><use transform="matrix(0.06234567901234567,0,0,0.06234567901234567,131.98580246913576,0)" xlink:href="#V"/><use transform="matrix(0.06234567901234567,0,0,0.06234567901234567,144.4549382716049,0)" xlink:href="#U"/></g><path fill="#333" d="M145-31C134-9 116 4 85 4 32 4 16-35 15-94c0-59 17-99 70-100 32-1 48 14 60 33 0-11-1-24 2-32h30l-1 268h-32zM93-21c41 0 51-33 51-76s-8-73-50-73c-40 0-46 35-46 75s5 74 45 74" id="ax"/><path fill="#333" d="M135-143c-3-34-86-38-87 0 15 53 115 12 119 90S17 21 10-45l28-5c4 36 97 45 98 0-10-56-113-15-118-90-4-57 82-63 122-42 12 7 21 19 24 35" id="ay"/><g id="l"><use transform="matrix(0.056172839506172835,0,0,0.056172839506172835,0,0)" xlink:href="#R"/><use transform="matrix(0.056172839506172835,0,0,0.056172839506172835,14.548765432098763,0)" xlink:href="#N"/><use transform="matrix(0.056172839506172835,0,0,0.056172839506172835,25.78333333333333,0)" xlink:href="#ax"/><use transform="matrix(0.056172839506172835,0,0,0.056172839506172835,37.0179012345679,0)" xlink:href="#T"/><use transform="matrix(0.056172839506172835,0,0,0.056172839506172835,48.25246913580247,0)" xlink:href="#X"/><use transform="matrix(0.056172839506172835,0,0,0.056172839506172835,52.690123456790126,0)" xlink:href="#ay"/><use transform="matrix(0.056172839506172835,0,0,0.056172839506172835,62.80123456790123,0)" xlink:href="#X"/><use transform="matrix(0.056172839506172835,0,0,0.056172839506172835,67.23888888888888,0)" xlink:href="#M"/><use transform="matrix(0.056172839506172835,0,0,0.056172839506172835,72.85617283950616,0)" xlink:href="#Q"/><use transform="matrix(0.056172839506172835,0,0,0.056172839506172835,84.09074074074073,0)" xlink:href="#ay"/></g><path fill="#333" d="M34 0v-190h32V0H34zM24-211c8-23 27-35 38-54h36v5l-58 49H24" id="az"/><g id="m"><use transform="matrix(0.056172839506172835,0,0,0.056172839506172835,0,0)" xlink:href="#at"/><use transform="matrix(0.056172839506172835,0,0,0.056172839506172835,10.054938271604938,0)" xlink:href="#N"/><use transform="matrix(0.056172839506172835,0,0,0.056172839506172835,21.289506172839502,0)" xlink:href="#W"/><use transform="matrix(0.056172839506172835,0,0,0.056172839506172835,31.400617283950616,0)" xlink:href="#P"/><use transform="matrix(0.056172839506172835,0,0,0.056172839506172835,42.63518518518518,0)" xlink:href="#Q"/><use transform="matrix(0.056172839506172835,0,0,0.056172839506172835,53.86975308641975,0)" xlink:href="#U"/><use transform="matrix(0.056172839506172835,0,0,0.056172839506172835,58.3074074074074,0)" xlink:href="#Q"/><use transform="matrix(0.056172839506172835,0,0,0.056172839506172835,69.54197530864197,0)" xlink:href="#S"/><use transform="matrix(0.056172839506172835,0,0,0.056172839506172835,80.77654320987654,0)" xlink:href="#az"/><use transform="matrix(0.056172839506172835,0,0,0.056172839506172835,86.39382716049381,0)" xlink:href="#V"/></g><path fill="#333" d="M212-179c-10-28-35-45-73-45-59 0-87 40-87 99 0 60 29 101 89 101 43 0 62-24 78-52l27 14C228-24 195 4 139 4 59 4 22-46 18-125c-6-104 99-153 187-111 19 9 31 26 39 46" id="aA"/><path fill="#333" d="M210-169c-67 3-38 105-44 169h-31v-121c0-29-5-50-35-48C34-165 62-65 56 0H25l-1-190h30c1 10-1 24 2 32 10-44 99-50 107 0 11-21 27-35 58-36 85-2 47 119 55 194h-31v-121c0-29-5-49-35-48" id="aB"/><path fill="#333" d="M115-194c55 1 70 41 70 98S169 2 115 4C84 4 66-9 55-30l1 105H24l-1-265h31l2 30c10-21 28-34 59-34zm-8 174c40 0 45-34 45-75s-6-73-45-74c-42 0-51 32-51 76 0 43 10 73 51 73" id="aC"/><path fill="#333" d="M24-231v-30h32v30H24zM-9 49c24 4 33-6 33-30v-209h32V24c2 40-23 58-65 49V49" id="aD"/><g id="n"><use transform="matrix(0.056172839506172835,0,0,0.056172839506172835,0,0)" xlink:href="#aA"/><use transform="matrix(0.056172839506172835,0,0,0.056172839506172835,14.548765432098763,0)" xlink:href="#Q"/><use transform="matrix(0.056172839506172835,0,0,0.056172839506172835,25.78333333333333,0)" xlink:href="#aB"/><use transform="matrix(0.056172839506172835,0,0,0.056172839506172835,42.579012345679004,0)" xlink:href="#aC"/><use transform="matrix(0.056172839506172835,0,0,0.056172839506172835,53.813580246913574,0)" xlink:href="#U"/><use transform="matrix(0.056172839506172835,0,0,0.056172839506172835,58.25123456790123,0)" xlink:href="#N"/><use transform="matrix(0.056172839506172835,0,0,0.056172839506172835,69.48580246913579,0)" xlink:href="#aD"/><use transform="matrix(0.056172839506172835,0,0,0.056172839506172835,73.92345679012344,0)" xlink:href="#X"/><use transform="matrix(0.056172839506172835,0,0,0.056172839506172835,78.36111111111109,0)" xlink:href="#aa"/><use transform="matrix(0.056172839506172835,0,0,0.056172839506172835,89.59567901234566,0)" xlink:href="#V"/><use transform="matrix(0.056172839506172835,0,0,0.056172839506172835,100.83024691358023,0)" xlink:href="#aa"/></g><use transform="matrix(0.056172839506172835,0,0,0.056172839506172835,0,0)" xlink:href="#N" id="o"/><path fill="#333" d="M33 0v-248h34V0H33" id="aE"/><path fill="#333" d="M101-234c-31-9-42 10-38 44h38v23H63V0H32v-167H5v-23h27c-7-52 17-82 69-68v24" id="aF"/><g id="p"><use transform="matrix(0.056172839506172835,0,0,0.056172839506172835,0,0)" xlink:href="#aE"/><use transform="matrix(0.056172839506172835,0,0,0.056172839506172835,5.617283950617283,0)" xlink:href="#P"/><use transform="matrix(0.056172839506172835,0,0,0.056172839506172835,16.851851851851848,0)" xlink:href="#M"/><use transform="matrix(0.056172839506172835,0,0,0.056172839506172835,22.469135802469133,0)" xlink:href="#N"/><use transform="matrix(0.056172839506172835,0,0,0.056172839506172835,33.703703703703695,0)" xlink:href="#O"/><use transform="matrix(0.056172839506172835,0,0,0.056172839506172835,40.38827160493826,0)" xlink:href="#aF"/><use transform="matrix(0.056172839506172835,0,0,0.056172839506172835,46.005555555555546,0)" xlink:href="#V"/><use transform="matrix(0.056172839506172835,0,0,0.056172839506172835,57.240123456790116,0)" xlink:href="#W"/><use transform="matrix(0.056172839506172835,0,0,0.056172839506172835,67.35123456790123,0)" xlink:href="#N"/><use transform="matrix(0.056172839506172835,0,0,0.056172839506172835,78.5858024691358,0)" xlink:href="#ay"/></g><path fill="#333" d="M30-248c87 1 191-15 191 75 0 78-77 80-158 76V0H30v-248zm33 125c57 0 124 11 124-50 0-59-68-47-124-48v98" id="aG"/><g id="q"><use transform="matrix(0.056172839506172835,0,0,0.056172839506172835,0,0)" xlink:href="#aG"/><use transform="matrix(0.056172839506172835,0,0,0.056172839506172835,13.481481481481481,0)" xlink:href="#O"/><use transform="matrix(0.056172839506172835,0,0,0.056172839506172835,20.166049382716047,0)" xlink:href="#N"/><use transform="matrix(0.056172839506172835,0,0,0.056172839506172835,31.400617283950616,0)" xlink:href="#ay"/><use transform="matrix(0.056172839506172835,0,0,0.056172839506172835,41.51172839506172,0)" xlink:href="#M"/><use transform="matrix(0.056172839506172835,0,0,0.056172839506172835,47.12901234567901,0)" xlink:href="#V"/><use transform="matrix(0.056172839506172835,0,0,0.056172839506172835,58.36358024691358,0)" xlink:href="#W"/><use transform="matrix(0.056172839506172835,0,0,0.056172839506172835,68.47469135802469,0)" xlink:href="#X"/><use transform="matrix(0.056172839506172835,0,0,0.056172839506172835,72.91234567901233,0)" xlink:href="#Q"/><use transform="matrix(0.056172839506172835,0,0,0.056172839506172835,84.1469135802469,0)" xlink:href="#P"/><use transform="matrix(0.056172839506172835,0,0,0.056172839506172835,95.38148148148147,0)" xlink:href="#N"/><use transform="matrix(0.056172839506172835,0,0,0.056172839506172835,106.61604938271604,0)" xlink:href="#ay"/></g><path fill="#333" d="M179-190L93 31C79 59 56 82 12 73V49c39 6 53-20 64-50L1-190h34L92-34l54-156h33" id="aH"/><use transform="matrix(0.056172839506172835,0,0,0.056172839506172835,0,0)" xlink:href="#aH" id="r"/><path fill="#333" d="M115-194c53 0 69 39 70 98 0 66-23 100-70 100C84 3 66-7 56-30L54 0H23l1-261h32v101c10-23 28-34 59-34zm-8 174c40 0 45-34 45-75 0-40-5-75-45-74-42 0-51 32-51 76 0 43 10 73 51 73" id="aI"/><g id="s"><use transform="matrix(0.056172839506172835,0,0,0.056172839506172835,0,0)" xlink:href="#aF"/><use transform="matrix(0.056172839506172835,0,0,0.056172839506172835,5.617283950617283,0)" xlink:href="#X"/><use transform="matrix(0.056172839506172835,0,0,0.056172839506172835,10.054938271604936,0)" xlink:href="#V"/><use transform="matrix(0.056172839506172835,0,0,0.056172839506172835,21.289506172839502,0)" xlink:href="#aI"/><use transform="matrix(0.056172839506172835,0,0,0.056172839506172835,32.524074074074065,0)" xlink:href="#X"/><use transform="matrix(0.056172839506172835,0,0,0.056172839506172835,36.96172839506172,0)" xlink:href="#U"/><use transform="matrix(0.056172839506172835,0,0,0.056172839506172835,41.399382716049374,0)" xlink:href="#X"/><use transform="matrix(0.056172839506172835,0,0,0.056172839506172835,45.83703703703703,0)" xlink:href="#aa"/><use transform="matrix(0.056172839506172835,0,0,0.056172839506172835,57.07160493827159,0)" xlink:href="#V"/><use transform="matrix(0.056172839506172835,0,0,0.056172839506172835,68.30617283950616,0)" xlink:href="#aa"/></g><g id="t"><use transform="matrix(0.056172839506172835,0,0,0.056172839506172835,0,0)" xlink:href="#aA"/><use transform="matrix(0.056172839506172835,0,0,0.056172839506172835,14.548765432098763,0)" xlink:href="#V"/><use transform="matrix(0.056172839506172835,0,0,0.056172839506172835,25.78333333333333,0)" xlink:href="#U"/><use transform="matrix(0.056172839506172835,0,0,0.056172839506172835,30.220987654320986,0)" xlink:href="#X"/><use transform="matrix(0.056172839506172835,0,0,0.056172839506172835,34.65864197530864,0)" xlink:href="#aa"/><use transform="matrix(0.056172839506172835,0,0,0.056172839506172835,45.89320987654321,0)" xlink:href="#V"/><use transform="matrix(0.056172839506172835,0,0,0.056172839506172835,57.12777777777778,0)" xlink:href="#aa"/></g><g id="u"><use transform="matrix(0.056172839506172835,0,0,0.056172839506172835,0,0)" xlink:href="#aA"/><use transform="matrix(0.056172839506172835,0,0,0.056172839506172835,14.548765432098763,0)" xlink:href="#V"/><use transform="matrix(0.056172839506172835,0,0,0.056172839506172835,25.78333333333333,0)" xlink:href="#aB"/><use transform="matrix(0.056172839506172835,0,0,0.056172839506172835,42.579012345679004,0)" xlink:href="#aI"/><use transform="matrix(0.056172839506172835,0,0,0.056172839506172835,53.813580246913574,0)" xlink:href="#X"/><use transform="matrix(0.056172839506172835,0,0,0.056172839506172835,58.25123456790123,0)" xlink:href="#Q"/><use transform="matrix(0.056172839506172835,0,0,0.056172839506172835,69.48580246913579,0)" xlink:href="#ay"/></g><g id="v"><use transform="matrix(0.056172839506172835,0,0,0.056172839506172835,0,0)" xlink:href="#aa"/><use transform="matrix(0.056172839506172835,0,0,0.056172839506172835,11.234567901234566,0)" xlink:href="#N"/></g><g id="w"><use transform="matrix(0.056172839506172835,0,0,0.056172839506172835,0,0)" xlink:href="#U"/><use transform="matrix(0.056172839506172835,0,0,0.056172839506172835,4.4376543209876536,0)" xlink:href="#X"/><use transform="matrix(0.056172839506172835,0,0,0.056172839506172835,8.875308641975307,0)" xlink:href="#W"/><use transform="matrix(0.056172839506172835,0,0,0.056172839506172835,18.986419753086416,0)" xlink:href="#N"/><use transform="matrix(0.056172839506172835,0,0,0.056172839506172835,30.220987654320986,0)" xlink:href="#P"/><use transform="matrix(0.056172839506172835,0,0,0.056172839506172835,41.45555555555555,0)" xlink:href="#W"/><use transform="matrix(0.056172839506172835,0,0,0.056172839506172835,51.56666666666666,0)" xlink:href="#X"/><use transform="matrix(0.056172839506172835,0,0,0.056172839506172835,56.00432098765432,0)" xlink:href="#V"/><use transform="matrix(0.056172839506172835,0,0,0.056172839506172835,67.23888888888888,0)" xlink:href="#ay"/></g><g id="x"><use transform="matrix(0.056172839506172835,0,0,0.056172839506172835,0,0)" xlink:href="#R"/><use transform="matrix(0.056172839506172835,0,0,0.056172839506172835,14.548765432098763,0)" xlink:href="#N"/><use transform="matrix(0.056172839506172835,0,0,0.056172839506172835,25.78333333333333,0)" xlink:href="#W"/><use transform="matrix(0.056172839506172835,0,0,0.056172839506172835,35.894444444444446,0)" xlink:href="#T"/><use transform="matrix(0.056172839506172835,0,0,0.056172839506172835,47.129012345679016,0)" xlink:href="#O"/><use transform="matrix(0.056172839506172835,0,0,0.056172839506172835,53.81358024691358,0)" xlink:href="#ay"/><use transform="matrix(0.056172839506172835,0,0,0.056172839506172835,63.92469135802469,0)" xlink:href="#Q"/><use transform="matrix(0.056172839506172835,0,0,0.056172839506172835,75.15925925925926,0)" xlink:href="#ay"/></g><path fill="#333" d="M30-248c118-7 216 8 213 122C240-48 200 0 122 0H30v-248zM63-27c89 8 146-16 146-99s-60-101-146-95v194" id="aJ"/><g id="y"><use transform="matrix(0.056172839506172835,0,0,0.056172839506172835,0,0)" xlink:href="#aJ"/><use transform="matrix(0.056172839506172835,0,0,0.056172839506172835,14.548765432098763,0)" xlink:href="#N"/><use transform="matrix(0.056172839506172835,0,0,0.056172839506172835,25.78333333333333,0)" xlink:href="#aC"/><use transform="matrix(0.056172839506172835,0,0,0.056172839506172835,37.0179012345679,0)" xlink:href="#N"/><use transform="matrix(0.056172839506172835,0,0,0.056172839506172835,48.25246913580247,0)" xlink:href="#P"/><use transform="matrix(0.056172839506172835,0,0,0.056172839506172835,59.48703703703705,0)" xlink:href="#aa"/><use transform="matrix(0.056172839506172835,0,0,0.056172839506172835,70.72160493827161,0)" xlink:href="#N"/><use transform="matrix(0.056172839506172835,0,0,0.056172839506172835,81.95617283950618,0)" xlink:href="#P"/><use transform="matrix(0.056172839506172835,0,0,0.056172839506172835,93.19074074074075,0)" xlink:href="#W"/><use transform="matrix(0.056172839506172835,0,0,0.056172839506172835,103.30185185185186,0)" xlink:href="#X"/><use transform="matrix(0.056172839506172835,0,0,0.056172839506172835,107.73950617283951,0)" xlink:href="#V"/><use transform="matrix(0.056172839506172835,0,0,0.056172839506172835,118.9740740740741,0)" xlink:href="#ay"/></g><g id="z"><use transform="matrix(0.056172839506172835,0,0,0.056172839506172835,0,0)" xlink:href="#aa"/><use transform="matrix(0.056172839506172835,0,0,0.056172839506172835,11.234567901234566,0)" xlink:href="#N"/><use transform="matrix(0.056172839506172835,0,0,0.056172839506172835,22.469135802469133,0)" xlink:href="#U"/></g><g id="A"><use transform="matrix(0.056172839506172835,0,0,0.056172839506172835,0,0)" xlink:href="#aC"/><use transform="matrix(0.056172839506172835,0,0,0.056172839506172835,11.234567901234566,0)" xlink:href="#O"/><use transform="matrix(0.056172839506172835,0,0,0.056172839506172835,17.919135802469135,0)" xlink:href="#Q"/><use transform="matrix(0.056172839506172835,0,0,0.056172839506172835,29.1537037037037,0)" xlink:href="#aH"/><use transform="matrix(0.056172839506172835,0,0,0.056172839506172835,39.26481481481481,0)" xlink:href="#N"/><use transform="matrix(0.056172839506172835,0,0,0.056172839506172835,50.49938271604938,0)" xlink:href="#W"/><use transform="matrix(0.056172839506172835,0,0,0.056172839506172835,60.610493827160504,0)" xlink:href="#M"/><use transform="matrix(0.056172839506172835,0,0,0.056172839506172835,66.22777777777777,0)" xlink:href="#Q"/></g><g id="B"><use transform="matrix(0.056172839506172835,0,0,0.056172839506172835,0,0)" xlink:href="#aG"/><use transform="matrix(0.056172839506172835,0,0,0.056172839506172835,13.481481481481481,0)" xlink:href="#O"/><use transform="matrix(0.056172839506172835,0,0,0.056172839506172835,20.166049382716047,0)" xlink:href="#X"/><use transform="matrix(0.056172839506172835,0,0,0.056172839506172835,24.6037037037037,0)" xlink:href="#Q"/><use transform="matrix(0.056172839506172835,0,0,0.056172839506172835,35.83827160493827,0)" xlink:href="#O"/><use transform="matrix(0.056172839506172835,0,0,0.056172839506172835,42.522839506172836,0)" xlink:href="#X"/><use transform="matrix(0.056172839506172835,0,0,0.056172839506172835,46.96049382716049,0)" xlink:href="#aw"/><use transform="matrix(0.056172839506172835,0,0,0.056172839506172835,57.071604938271605,0)" xlink:href="#V"/><use transform="matrix(0.056172839506172835,0,0,0.056172839506172835,68.30617283950617,0)" xlink:href="#W"/><use transform="matrix(0.056172839506172835,0,0,0.056172839506172835,78.41728395061729,0)" xlink:href="#X"/><use transform="matrix(0.056172839506172835,0,0,0.056172839506172835,82.85493827160494,0)" xlink:href="#Y"/><use transform="matrix(0.056172839506172835,0,0,0.056172839506172835,94.0895061728395,0)" xlink:href="#P"/></g><path fill="#333" d="M143 4C61 4 22-44 18-125c-5-107 100-154 193-111 17 8 29 25 37 43l-32 9c-13-25-37-40-76-40-61 0-88 39-88 99 0 61 29 100 91 101 35 0 62-11 79-27v-45h-74v-28h105v86C228-13 192 4 143 4" id="aK"/><g id="C"><use transform="matrix(0.06234567901234567,0,0,0.06234567901234567,0,0)" xlink:href="#aK"/><use transform="matrix(0.06234567901234567,0,0,0.06234567901234567,17.456790123456788,0)" xlink:href="#N"/><use transform="matrix(0.06234567901234567,0,0,0.06234567901234567,29.92592592592592,0)" xlink:href="#ay"/><use transform="matrix(0.06234567901234567,0,0,0.06234567901234567,41.14814814814814,0)" xlink:href="#M"/><use transform="matrix(0.06234567901234567,0,0,0.06234567901234567,47.38271604938271,0)" xlink:href="#X"/><use transform="matrix(0.06234567901234567,0,0,0.06234567901234567,52.308024691358014,0)" xlink:href="#Y"/><use transform="matrix(0.06234567901234567,0,0,0.06234567901234567,64.77716049382715,0)" xlink:href="#P"/></g><g id="D"><use transform="matrix(0.06234567901234567,0,0,0.06234567901234567,0,0)" xlink:href="#aa"/><use transform="matrix(0.06234567901234567,0,0,0.06234567901234567,12.469135802469133,0)" xlink:href="#N"/></g><g id="E"><use transform="matrix(0.06234567901234567,0,0,0.06234567901234567,0,0)" xlink:href="#aG"/><use transform="matrix(0.06234567901234567,0,0,0.06234567901234567,14.96296296296296,0)" xlink:href="#O"/><use transform="matrix(0.06234567901234567,0,0,0.06234567901234567,22.382098765432094,0)" xlink:href="#Q"/><use transform="matrix(0.06234567901234567,0,0,0.06234567901234567,34.85123456790123,0)" xlink:href="#aH"/><use transform="matrix(0.06234567901234567,0,0,0.06234567901234567,46.07345679012345,0)" xlink:href="#N"/><use transform="matrix(0.06234567901234567,0,0,0.06234567901234567,58.542592592592584,0)" xlink:href="#W"/><use transform="matrix(0.06234567901234567,0,0,0.06234567901234567,69.7648148148148,0)" xlink:href="#M"/><use transform="matrix(0.06234567901234567,0,0,0.06234567901234567,75.99938271604937,0)" xlink:href="#Q"/></g><path fill="#fff" d="M24-248c93 1 206-16 204 79-1 75-69 88-152 82V0H24v-248zm52 121c47 0 100 7 100-41 0-47-54-39-100-39v80" id="aL"/><path fill="#fff" d="M135-150c-39-12-60 13-60 57V0H25l-1-190h47c2 13-1 29 3 40 6-28 27-53 61-41v41" id="aM"/><path fill="#fff" d="M110-194c64 0 96 36 96 99 0 64-35 99-97 99-61 0-95-36-95-99 0-62 34-99 96-99zm-1 164c35 0 45-28 45-65 0-40-10-65-43-65-34 0-45 26-45 65 0 36 10 65 43 65" id="aN"/><path fill="#fff" d="M123 10C108 53 80 86 19 72V37c35 8 53-11 59-39L3-190h52l48 148c12-52 28-100 44-148h51" id="aO"/><path fill="#fff" d="M185-48c-13 30-37 53-82 52C43 2 14-33 14-96s30-98 90-98c62 0 83 45 84 108H66c0 31 8 55 39 56 18 0 30-7 34-22zm-45-69c5-46-57-63-70-21-2 6-4 13-4 21h74" id="aP"/><path fill="#fff" d="M190-63c-7 42-38 67-86 67-59 0-84-38-90-98-12-110 154-137 174-36l-49 2c-2-19-15-32-35-32-30 0-35 28-38 64-6 74 65 87 74 30" id="aQ"/><path fill="#fff" d="M115-3C79 11 28 4 28-45v-112H4v-33h27l15-45h31v45h36v33H77v99c-1 23 16 31 38 25v30" id="aR"/><g id="F"><use transform="matrix(0.06234567901234565,0,0,0.06234567901234565,0,0)" xlink:href="#aL"/><use transform="matrix(0.06234567901234565,0,0,0.06234567901234565,14.962962962962957,0)" xlink:href="#aM"/><use transform="matrix(0.06234567901234565,0,0,0.06234567901234565,23.691358024691347,0)" xlink:href="#aN"/><use transform="matrix(0.06234567901234565,0,0,0.06234567901234565,37.345061728395045,0)" xlink:href="#aO"/><use transform="matrix(0.06234567901234565,0,0,0.06234567901234565,49.81419753086418,0)" xlink:href="#aP"/><use transform="matrix(0.06234567901234565,0,0,0.06234567901234565,62.28333333333331,0)" xlink:href="#aQ"/><use transform="matrix(0.06234567901234565,0,0,0.06234567901234565,74.75246913580244,0)" xlink:href="#aR"/><use transform="matrix(0.06234567901234565,0,0,0.06234567901234565,82.17160493827157,0)" xlink:href="#aN"/></g><g id="G"><use transform="matrix(0.056172839506172835,0,0,0.056172839506172835,0,0)" xlink:href="#aG"/><use transform="matrix(0.056172839506172835,0,0,0.056172839506172835,13.481481481481481,0)" xlink:href="#U"/><use transform="matrix(0.056172839506172835,0,0,0.056172839506172835,17.919135802469135,0)" xlink:href="#V"/><use transform="matrix(0.056172839506172835,0,0,0.056172839506172835,29.1537037037037,0)" xlink:href="#P"/><use transform="matrix(0.056172839506172835,0,0,0.056172839506172835,40.38827160493827,0)" xlink:href="#X"/><use transform="matrix(0.056172839506172835,0,0,0.056172839506172835,44.82592592592592,0)" xlink:href="#aF"/><use transform="matrix(0.056172839506172835,0,0,0.056172839506172835,50.44320987654321,0)" xlink:href="#X"/><use transform="matrix(0.056172839506172835,0,0,0.056172839506172835,54.88086419753086,0)" xlink:href="#W"/><use transform="matrix(0.056172839506172835,0,0,0.056172839506172835,64.99197530864197,0)" xlink:href="#V"/><use transform="matrix(0.056172839506172835,0,0,0.056172839506172835,76.22654320987654,0)" xlink:href="#W"/><use transform="matrix(0.056172839506172835,0,0,0.056172839506172835,86.33765432098765,0)" xlink:href="#X"/><use transform="matrix(0.056172839506172835,0,0,0.056172839506172835,90.7753086419753,0)" xlink:href="#Y"/><use transform="matrix(0.056172839506172835,0,0,0.056172839506172835,102.00987654320987,0)" xlink:href="#P"/></g><g id="H"><use transform="matrix(0.056172839506172835,0,0,0.056172839506172835,0,0)" xlink:href="#aA"/><use transform="matrix(0.056172839506172835,0,0,0.056172839506172835,14.548765432098763,0)" xlink:href="#Q"/><use transform="matrix(0.056172839506172835,0,0,0.056172839506172835,25.78333333333333,0)" xlink:href="#P"/><use transform="matrix(0.056172839506172835,0,0,0.056172839506172835,37.0179012345679,0)" xlink:href="#M"/><use transform="matrix(0.056172839506172835,0,0,0.056172839506172835,42.635185185185186,0)" xlink:href="#O"/><use transform="matrix(0.056172839506172835,0,0,0.056172839506172835,49.31975308641975,0)" xlink:href="#Q"/><use transform="matrix(0.056172839506172835,0,0,0.056172839506172835,60.554320987654314,0)" xlink:href="#U"/></g><g id="I"><use transform="matrix(0.056172839506172835,0,0,0.056172839506172835,0,0)" xlink:href="#K"/><use transform="matrix(0.056172839506172835,0,0,0.056172839506172835,13.481481481481481,0)" xlink:href="#ay"/><use transform="matrix(0.056172839506172835,0,0,0.056172839506172835,23.59259259259259,0)" xlink:href="#M"/><use transform="matrix(0.056172839506172835,0,0,0.056172839506172835,29.209876543209873,0)" xlink:href="#X"/><use transform="matrix(0.056172839506172835,0,0,0.056172839506172835,33.64753086419753,0)" xlink:href="#aB"/><use transform="matrix(0.056172839506172835,0,0,0.056172839506172835,50.44320987654321,0)" xlink:href="#V"/><use transform="matrix(0.056172839506172835,0,0,0.056172839506172835,61.67777777777777,0)" xlink:href="#W"/><use transform="matrix(0.056172839506172835,0,0,0.056172839506172835,71.78888888888889,0)" xlink:href="#X"/><use transform="matrix(0.056172839506172835,0,0,0.056172839506172835,76.22654320987654,0)" xlink:href="#Y"/><use transform="matrix(0.056172839506172835,0,0,0.056172839506172835,87.46111111111111,0)" xlink:href="#P"/></g><g id="J"><use transform="matrix(0.056172839506172835,0,0,0.056172839506172835,0,0)" xlink:href="#aA"/><use transform="matrix(0.056172839506172835,0,0,0.056172839506172835,14.548765432098763,0)" xlink:href="#Q"/><use transform="matrix(0.056172839506172835,0,0,0.056172839506172835,25.78333333333333,0)" xlink:href="#aB"/><use transform="matrix(0.056172839506172835,0,0,0.056172839506172835,42.579012345679004,0)" xlink:href="#T"/><use transform="matrix(0.056172839506172835,0,0,0.056172839506172835,53.813580246913574,0)" xlink:href="#P"/><use transform="matrix(0.056172839506172835,0,0,0.056172839506172835,65.04814814814814,0)" xlink:href="#X"/><use transform="matrix(0.056172839506172835,0,0,0.056172839506172835,69.48580246913579,0)" xlink:href="#W"/><use transform="matrix(0.056172839506172835,0,0,0.056172839506172835,79.5969135802469,0)" xlink:href="#V"/><use transform="matrix(0.056172839506172835,0,0,0.056172839506172835,90.83148148148148,0)" xlink:href="#W"/><use transform="matrix(0.056172839506172835,0,0,0.056172839506172835,100.94259259259259,0)" xlink:href="#X"/><use transform="matrix(0.056172839506172835,0,0,0.056172839506172835,105.38024691358024,0)" xlink:href="#Y"/><use transform="matrix(0.056172839506172835,0,0,0.056172839506172835,116.6148148148148,0)" xlink:href="#P"/></g></defs></g></svg>